<svg width="185" height="37" viewBox="0 0 185 37" fill="none" xmlns="http://www.w3.org/2000/svg">
<path d="M133.405 11.186V3.91331H137.965V4.85791H134.503V7.07382H137.727V8.01487H134.503V10.2414H138.008V11.186H133.405ZM140.407 7.9474V11.186H139.346V5.73149H140.365V6.61927H140.432C140.558 6.33045 140.754 6.09844 141.022 5.92325C141.292 5.74806 141.631 5.66047 142.041 5.66047C142.413 5.66047 142.738 5.73859 143.017 5.89484C143.297 6.04872 143.513 6.27836 143.667 6.58376C143.821 6.88916 143.898 7.26676 143.898 7.71657V11.186H142.836V7.84442C142.836 7.44906 142.733 7.14011 142.527 6.91757C142.321 6.69266 142.039 6.58021 141.679 6.58021C141.432 6.58021 141.214 6.63348 141.022 6.74001C140.832 6.84655 140.682 7.0028 140.571 7.20876C140.462 7.41236 140.407 7.65857 140.407 7.9474ZM147.868 5.73149V6.58376H144.889V5.73149H147.868ZM145.688 4.42467H146.75V9.58447C146.75 9.79044 146.781 9.9455 146.842 10.0497C146.904 10.1515 146.983 10.2213 147.08 10.2592C147.179 10.2947 147.287 10.3125 147.403 10.3125C147.488 10.3125 147.563 10.3065 147.627 10.2947C147.691 10.2829 147.741 10.2734 147.776 10.2663L147.968 11.1434C147.906 11.1671 147.819 11.1908 147.705 11.2144C147.591 11.2405 147.449 11.2547 147.279 11.2571C146.999 11.2618 146.739 11.2121 146.498 11.1079C146.256 11.0037 146.061 10.8428 145.912 10.625C145.763 10.4072 145.688 10.1337 145.688 9.80464V4.42467ZM151.335 11.2961C150.798 11.2961 150.335 11.1813 149.947 10.9517C149.561 10.7197 149.262 10.3941 149.052 9.9751C148.843 9.5537 148.739 9.06009 148.739 8.49427C148.739 7.93556 148.843 7.44314 149.052 7.017C149.262 6.59086 149.556 6.25824 149.932 6.01913C150.311 5.78002 150.754 5.66047 151.261 5.66047C151.568 5.66047 151.867 5.71137 152.155 5.81317C152.444 5.91496 152.704 6.07477 152.933 6.29257C153.163 6.51037 153.344 6.79328 153.476 7.14129C153.609 7.48693 153.675 7.90715 153.675 8.40194V8.77836H149.339V7.98291H152.635C152.635 7.70355 152.578 7.45616 152.464 7.24072C152.351 7.02292 152.191 6.85128 151.985 6.72581C151.781 6.60033 151.542 6.5376 151.268 6.5376C150.969 6.5376 150.709 6.61099 150.486 6.75777C150.266 6.90218 150.096 7.09157 149.975 7.32595C149.857 7.55796 149.797 7.81009 149.797 8.08234V8.70379C149.797 9.06837 149.861 9.37851 149.989 9.63419C150.119 9.88987 150.301 10.0852 150.533 10.2201C150.765 10.3527 151.036 10.419 151.346 10.419C151.547 10.419 151.73 10.3906 151.896 10.3338C152.062 10.2746 152.205 10.187 152.326 10.071C152.447 9.95497 152.539 9.81175 152.603 9.64129L153.608 9.8224C153.527 10.1183 153.383 10.3776 153.175 10.6001C152.969 10.8203 152.709 10.9919 152.397 11.115C152.087 11.2358 151.733 11.2961 151.335 11.2961ZM154.853 11.186V5.73149H155.88V6.59797H155.937C156.036 6.30441 156.211 6.07358 156.462 5.9055C156.715 5.73504 157.002 5.64981 157.321 5.64981C157.388 5.64981 157.466 5.65218 157.556 5.65692C157.648 5.66165 157.72 5.66757 157.772 5.67467V6.6903C157.73 6.67846 157.654 6.66544 157.545 6.65123C157.436 6.63466 157.327 6.62638 157.218 6.62638C156.968 6.62638 156.744 6.67964 156.547 6.78618C156.353 6.89034 156.199 7.03594 156.086 7.22297C155.972 7.40763 155.915 7.61833 155.915 7.85507V11.186H154.853ZM158.691 13.2315V5.73149H159.728V6.61572H159.817C159.879 6.50209 159.967 6.37069 160.083 6.22155C160.199 6.0724 160.36 5.94219 160.566 5.83092C160.772 5.71729 161.045 5.66047 161.383 5.66047C161.823 5.66047 162.216 5.77174 162.562 5.99427C162.908 6.21681 163.179 6.5376 163.375 6.95663C163.574 7.37567 163.674 7.87993 163.674 8.46942C163.674 9.0589 163.575 9.56435 163.379 9.98575C163.182 10.4048 162.912 10.7279 162.569 10.9552C162.226 11.1801 161.834 11.2926 161.394 11.2926C161.062 11.2926 160.791 11.2369 160.581 11.1257C160.372 11.0144 160.209 10.8842 160.09 10.735C159.972 10.5859 159.881 10.4533 159.817 10.3373H159.753V13.2315H158.691ZM159.732 8.45876C159.732 8.84229 159.787 9.17846 159.899 9.46729C160.01 9.75611 160.171 9.9822 160.382 10.1456C160.592 10.3065 160.85 10.387 161.156 10.387C161.473 10.387 161.738 10.303 161.951 10.1349C162.164 9.96444 162.325 9.73362 162.434 9.44243C162.545 9.15123 162.601 8.82335 162.601 8.45876C162.601 8.09891 162.547 7.77576 162.438 7.4893C162.331 7.20284 162.17 6.97675 161.955 6.81104C161.742 6.64532 161.475 6.56246 161.156 6.56246C160.848 6.56246 160.588 6.64176 160.375 6.80038C160.164 6.959 160.004 7.18035 159.895 7.46444C159.786 7.74854 159.732 8.07997 159.732 8.45876ZM164.863 11.186V5.73149H165.889V6.59797H165.946C166.046 6.30441 166.221 6.07358 166.472 5.9055C166.725 5.73504 167.012 5.64981 167.331 5.64981C167.398 5.64981 167.476 5.65218 167.566 5.65692C167.658 5.66165 167.73 5.66757 167.782 5.67467V6.6903C167.74 6.67846 167.664 6.66544 167.555 6.65123C167.446 6.63466 167.337 6.62638 167.228 6.62638C166.977 6.62638 166.754 6.67964 166.557 6.78618C166.363 6.89034 166.209 7.03594 166.095 7.22297C165.982 7.40763 165.925 7.61833 165.925 7.85507V11.186H164.863ZM168.701 11.186V5.73149H169.763V11.186H168.701ZM169.237 4.88987C169.053 4.88987 168.894 4.82832 168.761 4.70521C168.631 4.57974 168.566 4.43059 168.566 4.25777C168.566 4.08258 168.631 3.93343 168.761 3.81032C168.894 3.68485 169.053 3.62211 169.237 3.62211C169.422 3.62211 169.579 3.68485 169.71 3.81032C169.842 3.93343 169.908 4.08258 169.908 4.25777C169.908 4.43059 169.842 4.57974 169.71 4.70521C169.579 4.82832 169.422 4.88987 169.237 4.88987ZM175.279 7.06317L174.316 7.23362C174.276 7.11051 174.212 6.99333 174.125 6.88206C174.039 6.77079 173.923 6.67964 173.777 6.60862C173.63 6.5376 173.446 6.50209 173.226 6.50209C172.925 6.50209 172.675 6.56956 172.473 6.7045C172.272 6.83708 172.171 7.00871 172.171 7.21942C172.171 7.40171 172.239 7.54849 172.374 7.65976C172.509 7.77103 172.727 7.86217 173.027 7.93319L173.894 8.13206C174.396 8.24806 174.77 8.4268 175.016 8.66828C175.262 8.90976 175.385 9.22344 175.385 9.60933C175.385 9.93604 175.291 10.2272 175.101 10.4829C174.914 10.7362 174.652 10.9351 174.316 11.0795C173.983 11.2239 173.595 11.2961 173.155 11.2961C172.544 11.2961 172.046 11.1659 171.66 10.9055C171.274 10.6427 171.037 10.2698 170.95 9.78689L171.976 9.63064C172.04 9.89816 172.171 10.1006 172.37 10.2379C172.569 10.3728 172.828 10.4403 173.148 10.4403C173.496 10.4403 173.774 10.3681 173.983 10.2237C174.191 10.0769 174.295 9.89816 174.295 9.68746C174.295 9.517 174.231 9.37377 174.103 9.25777C173.978 9.14176 173.785 9.05417 173.524 8.99498L172.601 8.79257C172.092 8.67657 171.716 8.49191 171.472 8.23859C171.23 7.98528 171.11 7.66449 171.11 7.27623C171.11 6.95426 171.2 6.67254 171.38 6.43106C171.559 6.18959 171.808 6.00138 172.125 5.86643C172.443 5.72912 172.806 5.66047 173.215 5.66047C173.805 5.66047 174.269 5.78831 174.608 6.04399C174.946 6.2973 175.17 6.63703 175.279 7.06317ZM178.903 11.2961C178.366 11.2961 177.903 11.1813 177.515 10.9517C177.129 10.7197 176.831 10.3941 176.62 9.9751C176.412 9.5537 176.308 9.06009 176.308 8.49427C176.308 7.93556 176.412 7.44314 176.62 7.017C176.831 6.59086 177.124 6.25824 177.501 6.01913C177.88 5.78002 178.322 5.66047 178.829 5.66047C179.137 5.66047 179.435 5.71137 179.724 5.81317C180.013 5.91496 180.272 6.07477 180.502 6.29257C180.731 6.51037 180.912 6.79328 181.045 7.14129C181.177 7.48693 181.244 7.90715 181.244 8.40194V8.77836H176.908V7.98291H180.203C180.203 7.70355 180.146 7.45616 180.033 7.24072C179.919 7.02292 179.759 6.85128 179.553 6.72581C179.35 6.60033 179.111 6.5376 178.836 6.5376C178.538 6.5376 178.277 6.61099 178.055 6.75777C177.835 6.90218 177.664 7.09157 177.543 7.32595C177.425 7.55796 177.366 7.81009 177.366 8.08234V8.70379C177.366 9.06837 177.43 9.37851 177.558 9.63419C177.688 9.88987 177.869 10.0852 178.101 10.2201C178.333 10.3527 178.604 10.419 178.914 10.419C179.115 10.419 179.299 10.3906 179.465 10.3338C179.63 10.2746 179.774 10.187 179.894 10.071C180.015 9.95497 180.107 9.81175 180.171 9.64129L181.176 9.8224C181.096 10.1183 180.951 10.3776 180.743 10.6001C180.537 10.8203 180.278 10.9919 179.965 11.115C179.655 11.2358 179.301 11.2961 178.903 11.2961ZM133.405 14.9133H134.737L137.052 20.5667H137.138L139.453 14.9133H140.785V22.186H139.741V16.9233H139.673L137.528 22.1754H136.662L134.517 16.9197H134.449V22.186H133.405V14.9133ZM143.882 22.3068C143.537 22.3068 143.224 22.2429 142.945 22.115C142.665 21.9848 142.444 21.7966 142.281 21.5504C142.12 21.3042 142.039 21.0023 142.039 20.6448C142.039 20.3371 142.098 20.0838 142.217 19.8849C142.335 19.686 142.495 19.5286 142.696 19.4126C142.897 19.2966 143.122 19.209 143.371 19.1498C143.619 19.0906 143.873 19.0456 144.131 19.0149C144.457 18.977 144.723 18.9462 144.926 18.9225C145.13 18.8965 145.278 18.8551 145.37 18.7983C145.462 18.7414 145.509 18.6491 145.509 18.5213V18.4964C145.509 18.1863 145.421 17.946 145.246 17.7755C145.073 17.6051 144.815 17.5198 144.472 17.5198C144.114 17.5198 143.832 17.5992 143.627 17.7578C143.423 17.914 143.282 18.088 143.204 18.2798L142.206 18.0525C142.324 17.7211 142.497 17.4536 142.725 17.25C142.954 17.044 143.218 16.8948 143.516 16.8025C143.815 16.7078 144.128 16.6605 144.457 16.6605C144.675 16.6605 144.906 16.6865 145.15 16.7386C145.396 16.7883 145.626 16.8806 145.839 17.0156C146.054 17.1505 146.231 17.3435 146.368 17.5944C146.505 17.843 146.574 18.1661 146.574 18.5639V22.186H145.537V21.4403H145.494C145.426 21.5776 145.323 21.7126 145.185 21.8451C145.048 21.9777 144.872 22.0878 144.656 22.1754C144.441 22.263 144.183 22.3068 143.882 22.3068ZM144.113 21.4545C144.407 21.4545 144.658 21.3965 144.866 21.2805C145.077 21.1645 145.236 21.013 145.345 20.8259C145.457 20.6366 145.512 20.4341 145.512 20.2187V19.5156C145.474 19.5535 145.401 19.589 145.292 19.6221C145.185 19.6529 145.064 19.6801 144.926 19.7038C144.789 19.7251 144.655 19.7452 144.525 19.7642C144.395 19.7807 144.286 19.7949 144.198 19.8068C143.992 19.8328 143.804 19.8766 143.634 19.9382C143.466 19.9997 143.331 20.0885 143.229 20.2045C143.129 20.3181 143.08 20.4697 143.08 20.659C143.08 20.9218 143.177 21.1207 143.371 21.2556C143.565 21.3882 143.812 21.4545 144.113 21.4545ZM150.286 22.2961C149.758 22.2961 149.303 22.1766 148.922 21.9375C148.543 21.696 148.252 21.3634 148.049 20.9396C147.845 20.5158 147.743 20.0305 147.743 19.4836C147.743 18.9296 147.847 18.4408 148.056 18.017C148.264 17.5909 148.558 17.2582 148.936 17.0191C149.315 16.78 149.761 16.6605 150.275 16.6605C150.689 16.6605 151.059 16.7374 151.383 16.8913C151.707 17.0428 151.969 17.2559 152.168 17.5305C152.369 17.8051 152.489 18.1259 152.527 18.4929H151.493C151.436 18.2372 151.306 18.017 151.103 17.8323C150.901 17.6477 150.631 17.5554 150.293 17.5554C149.997 17.5554 149.738 17.6335 149.515 17.7897C149.295 17.9436 149.123 18.1638 149 18.4502C148.877 18.7343 148.816 19.0705 148.816 19.4588C148.816 19.8565 148.876 20.1998 148.997 20.4886C149.117 20.7774 149.288 21.0011 149.508 21.1598C149.731 21.3184 149.992 21.3977 150.293 21.3977C150.494 21.3977 150.676 21.361 150.84 21.2876C151.005 21.2118 151.144 21.1041 151.255 20.9644C151.369 20.8248 151.448 20.6567 151.493 20.4602H152.527C152.489 20.8129 152.374 21.1278 152.182 21.4048C151.99 21.6818 151.733 21.8996 151.411 22.0582C151.092 22.2168 150.717 22.2961 150.286 22.2961ZM154.724 18.9474V22.186H153.662V14.9133H154.71V17.6193H154.777C154.905 17.3257 155.1 17.0925 155.363 16.9197C155.626 16.7469 155.969 16.6605 156.393 16.6605C156.767 16.6605 157.094 16.7374 157.373 16.8913C157.655 17.0452 157.872 17.2748 158.026 17.5802C158.183 17.8832 158.261 18.262 158.261 18.7166V22.186H157.199V18.8444C157.199 18.4443 157.096 18.1342 156.89 17.914C156.684 17.6915 156.398 17.5802 156.031 17.5802C155.78 17.5802 155.555 17.6335 155.356 17.74C155.159 17.8465 155.004 18.0028 154.891 18.2088C154.779 18.4124 154.724 18.6586 154.724 18.9474ZM159.678 22.186V16.7315H160.739V22.186H159.678ZM160.214 15.8899C160.029 15.8899 159.871 15.8283 159.738 15.7052C159.608 15.5797 159.543 15.4306 159.543 15.2578C159.543 15.0826 159.608 14.9334 159.738 14.8103C159.871 14.6849 160.029 14.6221 160.214 14.6221C160.399 14.6221 160.556 14.6849 160.686 14.8103C160.819 14.9334 160.885 15.0826 160.885 15.2578C160.885 15.4306 160.819 15.5797 160.686 15.7052C160.556 15.8283 160.399 15.8899 160.214 15.8899ZM163.23 18.9474V22.186H162.168V16.7315H163.187V17.6193H163.255C163.38 17.3304 163.576 17.0984 163.844 16.9233C164.114 16.7481 164.454 16.6605 164.863 16.6605C165.235 16.6605 165.56 16.7386 165.84 16.8948C166.119 17.0487 166.336 17.2784 166.49 17.5838C166.643 17.8892 166.72 18.2668 166.72 18.7166V22.186H165.659V18.8444C165.659 18.4491 165.556 18.1401 165.35 17.9176C165.144 17.6927 164.861 17.5802 164.501 17.5802C164.255 17.5802 164.036 17.6335 163.844 17.74C163.655 17.8465 163.504 18.0028 163.393 18.2088C163.284 18.4124 163.23 18.6586 163.23 18.9474ZM170.495 22.2961C169.958 22.2961 169.495 22.1813 169.107 21.9517C168.721 21.7197 168.423 21.3941 168.212 20.9751C168.004 20.5537 167.899 20.0601 167.899 19.4943C167.899 18.9356 168.004 18.4431 168.212 18.017C168.423 17.5909 168.716 17.2582 169.093 17.0191C169.471 16.78 169.914 16.6605 170.421 16.6605C170.728 16.6605 171.027 16.7114 171.316 16.8132C171.604 16.915 171.864 17.0748 172.093 17.2926C172.323 17.5104 172.504 17.7933 172.637 18.1413C172.769 18.4869 172.835 18.9072 172.835 19.4019V19.7784H168.5V18.9829H171.795C171.795 18.7036 171.738 18.4562 171.625 18.2407C171.511 18.0229 171.351 17.8513 171.145 17.7258C170.942 17.6003 170.702 17.5376 170.428 17.5376C170.13 17.5376 169.869 17.611 169.647 17.7578C169.426 17.9022 169.256 18.0916 169.135 18.3259C169.017 18.558 168.958 18.8101 168.958 19.0823V19.7038C168.958 20.0684 169.022 20.3785 169.149 20.6342C169.28 20.8899 169.461 21.0852 169.693 21.2201C169.925 21.3527 170.196 21.419 170.506 21.419C170.707 21.419 170.891 21.3906 171.056 21.3338C171.222 21.2746 171.365 21.187 171.486 21.071C171.607 20.955 171.699 20.8117 171.763 20.6413L172.768 20.8224C172.688 21.1183 172.543 21.3776 172.335 21.6001C172.129 21.8203 171.87 21.9919 171.557 22.115C171.247 22.2358 170.893 22.2961 170.495 22.2961ZM134.02 33.186H132.855L135.472 25.9133H136.74L139.357 33.186H138.192L136.136 27.2343H136.079L134.02 33.186ZM134.215 30.338H137.994V31.2613H134.215V30.338ZM144.37 29.0632L143.408 29.2336C143.368 29.1105 143.304 28.9933 143.216 28.8821C143.131 28.7708 143.015 28.6796 142.868 28.6086C142.722 28.5376 142.538 28.5021 142.318 28.5021C142.017 28.5021 141.766 28.5696 141.565 28.7045C141.364 28.8371 141.263 29.0087 141.263 29.2194C141.263 29.4017 141.331 29.5485 141.466 29.6598C141.601 29.771 141.818 29.8622 142.119 29.9332L142.986 30.1321C143.487 30.2481 143.861 30.4268 144.108 30.6683C144.354 30.9098 144.477 31.2234 144.477 31.6093C144.477 31.936 144.382 32.2272 144.193 32.4829C144.006 32.7362 143.744 32.9351 143.408 33.0795C143.074 33.2239 142.687 33.2961 142.247 33.2961C141.636 33.2961 141.138 33.1659 140.752 32.9055C140.366 32.6427 140.129 32.2698 140.042 31.7869L141.068 31.6306C141.132 31.8982 141.263 32.1006 141.462 32.2379C141.661 32.3728 141.92 32.4403 142.24 32.4403C142.588 32.4403 142.866 32.3681 143.074 32.2237C143.283 32.0769 143.387 31.8982 143.387 31.6875C143.387 31.517 143.323 31.3738 143.195 31.2578C143.07 31.1418 142.877 31.0542 142.616 30.995L141.693 30.7926C141.184 30.6766 140.807 30.4919 140.564 30.2386C140.322 29.9853 140.201 29.6645 140.201 29.2762C140.201 28.9543 140.291 28.6725 140.471 28.4311C140.651 28.1896 140.9 28.0014 141.217 27.8664C141.534 27.7291 141.898 27.6605 142.307 27.6605C142.897 27.6605 143.361 27.7883 143.699 28.044C144.038 28.2973 144.262 28.637 144.37 29.0632ZM149.732 29.0632L148.769 29.2336C148.729 29.1105 148.665 28.9933 148.578 28.8821C148.492 28.7708 148.376 28.6796 148.23 28.6086C148.083 28.5376 147.899 28.5021 147.679 28.5021C147.379 28.5021 147.128 28.5696 146.926 28.7045C146.725 28.8371 146.625 29.0087 146.625 29.2194C146.625 29.4017 146.692 29.5485 146.827 29.6598C146.962 29.771 147.18 29.8622 147.48 29.9332L148.347 30.1321C148.849 30.2481 149.223 30.4268 149.469 30.6683C149.715 30.9098 149.838 31.2234 149.838 31.6093C149.838 31.936 149.744 32.2272 149.554 32.4829C149.367 32.7362 149.106 32.9351 148.769 33.0795C148.436 33.2239 148.049 33.2961 147.608 33.2961C146.997 33.2961 146.499 33.1659 146.113 32.9055C145.727 32.6427 145.491 32.2698 145.403 31.7869L146.429 31.6306C146.493 31.8982 146.625 32.1006 146.823 32.2379C147.022 32.3728 147.282 32.4403 147.601 32.4403C147.949 32.4403 148.227 32.3681 148.436 32.2237C148.644 32.0769 148.748 31.8982 148.748 31.6875C148.748 31.517 148.684 31.3738 148.556 31.2578C148.431 31.1418 148.238 31.0542 147.978 30.995L147.054 30.7926C146.545 30.6766 146.169 30.4919 145.925 30.2386C145.684 29.9853 145.563 29.6645 145.563 29.2762C145.563 28.9543 145.653 28.6725 145.833 28.4311C146.013 28.1896 146.261 28.0014 146.578 27.8664C146.896 27.7291 147.259 27.6605 147.669 27.6605C148.258 27.6605 148.722 27.7883 149.061 28.044C149.399 28.2973 149.623 28.637 149.732 29.0632ZM151.006 33.186V27.7315H152.068V33.186H151.006ZM151.542 26.8899C151.357 26.8899 151.199 26.8283 151.066 26.7052C150.936 26.5797 150.871 26.4306 150.871 26.2578C150.871 26.0826 150.936 25.9334 151.066 25.8103C151.199 25.6849 151.357 25.6221 151.542 25.6221C151.727 25.6221 151.884 25.6849 152.014 25.8103C152.147 25.9334 152.213 26.0826 152.213 26.2578C152.213 26.4306 152.147 26.5797 152.014 26.7052C151.884 26.8283 151.727 26.8899 151.542 26.8899ZM157.583 29.0632L156.621 29.2336C156.581 29.1105 156.517 28.9933 156.429 28.8821C156.344 28.7708 156.228 28.6796 156.081 28.6086C155.934 28.5376 155.751 28.5021 155.531 28.5021C155.23 28.5021 154.979 28.5696 154.778 28.7045C154.577 28.8371 154.476 29.0087 154.476 29.2194C154.476 29.4017 154.544 29.5485 154.679 29.6598C154.813 29.771 155.031 29.8622 155.332 29.9332L156.198 30.1321C156.7 30.2481 157.074 30.4268 157.321 30.6683C157.567 30.9098 157.69 31.2234 157.69 31.6093C157.69 31.936 157.595 32.2272 157.406 32.4829C157.219 32.7362 156.957 32.9351 156.621 33.0795C156.287 33.2239 155.9 33.2961 155.46 33.2961C154.849 33.2961 154.351 33.1659 153.965 32.9055C153.579 32.6427 153.342 32.2698 153.255 31.7869L154.281 31.6306C154.345 31.8982 154.476 32.1006 154.675 32.2379C154.874 32.3728 155.133 32.4403 155.453 32.4403C155.801 32.4403 156.079 32.3681 156.287 32.2237C156.496 32.0769 156.6 31.8982 156.6 31.6875C156.6 31.517 156.536 31.3738 156.408 31.2578C156.282 31.1418 156.09 31.0542 155.829 30.995L154.906 30.7926C154.397 30.6766 154.02 30.4919 153.777 30.2386C153.535 29.9853 153.414 29.6645 153.414 29.2762C153.414 28.9543 153.504 28.6725 153.684 28.4311C153.864 28.1896 154.113 28.0014 154.43 27.8664C154.747 27.7291 155.111 27.6605 155.52 27.6605C156.11 27.6605 156.574 27.7883 156.912 28.044C157.251 28.2973 157.474 28.637 157.583 29.0632ZM161.403 27.7315V28.5838H158.424V27.7315H161.403ZM159.223 26.4247H160.285V31.5845C160.285 31.7904 160.316 31.9455 160.377 32.0497C160.439 32.1515 160.518 32.2213 160.615 32.2592C160.715 32.2947 160.822 32.3125 160.938 32.3125C161.024 32.3125 161.098 32.3065 161.162 32.2947C161.226 32.2829 161.276 32.2734 161.311 32.2663L161.503 33.1434C161.441 33.1671 161.354 33.1908 161.24 33.2144C161.127 33.2405 160.984 33.2547 160.814 33.2571C160.535 33.2618 160.274 33.2121 160.033 33.1079C159.791 33.0037 159.596 32.8428 159.447 32.625C159.298 32.4072 159.223 32.1337 159.223 31.8046V26.4247ZM164.165 33.3068C163.82 33.3068 163.507 33.2429 163.228 33.115C162.949 32.9848 162.727 32.7966 162.564 32.5504C162.403 32.3042 162.322 32.0023 162.322 31.6448C162.322 31.3371 162.382 31.0838 162.5 30.8849C162.618 30.686 162.778 30.5286 162.979 30.4126C163.181 30.2966 163.405 30.209 163.654 30.1498C163.903 30.0906 164.156 30.0456 164.414 30.0149C164.741 29.977 165.006 29.9462 165.209 29.9225C165.413 29.8965 165.561 29.8551 165.653 29.7983C165.746 29.7414 165.792 29.6491 165.792 29.5213V29.4964C165.792 29.1863 165.704 28.946 165.529 28.7755C165.356 28.6051 165.098 28.5198 164.755 28.5198C164.397 28.5198 164.116 28.5992 163.91 28.7578C163.706 28.914 163.565 29.088 163.487 29.2798L162.489 29.0525C162.608 28.7211 162.78 28.4536 163.008 28.25C163.237 28.044 163.501 27.8948 163.8 27.8025C164.098 27.7078 164.412 27.6605 164.741 27.6605C164.958 27.6605 165.189 27.6865 165.433 27.7386C165.679 27.7883 165.909 27.8806 166.122 28.0156C166.338 28.1505 166.514 28.3435 166.651 28.5944C166.789 28.843 166.857 29.1661 166.857 29.5639V33.186H165.82V32.4403H165.778C165.709 32.5776 165.606 32.7126 165.469 32.8451C165.331 32.9777 165.155 33.0878 164.94 33.1754C164.724 33.263 164.466 33.3068 164.165 33.3068ZM164.396 32.4545C164.69 32.4545 164.941 32.3965 165.149 32.2805C165.36 32.1645 165.52 32.013 165.628 31.8259C165.74 31.6366 165.795 31.4341 165.795 31.2187V30.5156C165.757 30.5535 165.684 30.589 165.575 30.6221C165.469 30.6529 165.347 30.6801 165.209 30.7038C165.072 30.7251 164.938 30.7452 164.808 30.7642C164.678 30.7807 164.569 30.7949 164.481 30.8068C164.275 30.8328 164.087 30.8766 163.917 30.9382C163.749 30.9997 163.614 31.0885 163.512 31.2045C163.413 31.3181 163.363 31.4697 163.363 31.659C163.363 31.9218 163.46 32.1207 163.654 32.2556C163.848 32.3882 164.096 32.4545 164.396 32.4545ZM169.333 29.9474V33.186H168.271V27.7315H169.291V28.6193H169.358C169.484 28.3304 169.68 28.0984 169.948 27.9233C170.217 27.7481 170.557 27.6605 170.967 27.6605C171.338 27.6605 171.664 27.7386 171.943 27.8948C172.223 28.0487 172.439 28.2784 172.593 28.5838C172.747 28.8892 172.824 29.2668 172.824 29.7166V33.186H171.762V29.8444C171.762 29.4491 171.659 29.1401 171.453 28.9176C171.247 28.6927 170.964 28.5802 170.604 28.5802C170.358 28.5802 170.139 28.6335 169.948 28.74C169.758 28.8465 169.608 29.0028 169.497 29.2088C169.388 29.4124 169.333 29.6586 169.333 29.9474ZM176.794 27.7315V28.5838H173.815V27.7315H176.794ZM174.614 26.4247H175.676V31.5845C175.676 31.7904 175.706 31.9455 175.768 32.0497C175.829 32.1515 175.909 32.2213 176.006 32.2592C176.105 32.2947 176.213 32.3125 176.329 32.3125C176.414 32.3125 176.489 32.3065 176.553 32.2947C176.617 32.2829 176.666 32.2734 176.702 32.2663L176.894 33.1434C176.832 33.1671 176.744 33.1908 176.631 33.2144C176.517 33.2405 176.375 33.2547 176.205 33.2571C175.925 33.2618 175.665 33.2121 175.423 33.1079C175.182 33.0037 174.987 32.8428 174.837 32.625C174.688 32.4072 174.614 32.1337 174.614 31.8046V26.4247Z" fill="#6E6E6E"/>
<path d="M123.304 2.79736L123.304 35.6294" stroke="#888888"/>
<path fill-rule="evenodd" clip-rule="evenodd" d="M85.1135 18.2382C86.351 18.2382 87.6732 19.0476 87.6732 21.3193V31.8523H93.2651V19.9826C93.2651 14.0966 89.1015 13.4609 87.3115 13.4609C84.8132 13.4609 83.0699 14.3154 81.4824 16.3172L81.3271 16.513L81.2126 16.2898C79.9536 13.8286 77.4315 13.4609 76.0404 13.4609C74.0376 13.4609 72.3788 14.3031 70.9692 16.035L70.6827 16.387V13.8258H65.0908V31.8523H70.6827V20.3882L70.7006 20.3527C71.3953 18.9891 72.5108 18.2382 73.8423 18.2382C75.0798 18.2382 76.4018 19.0476 76.4018 21.3193V31.8523H81.994V20.3467L82.0131 20.3104C82.7262 18.9549 83.7982 18.2382 85.1135 18.2382Z" fill="#1F2430"/>
<path fill-rule="evenodd" clip-rule="evenodd" d="M106.781 26.918L106.708 26.9666C105.781 27.5809 104.656 28.209 103.342 28.209C102.054 28.209 101.222 27.5085 101.222 26.4244C101.222 25.2053 102.263 24.8483 103.424 24.5631C104.114 24.3883 105.534 24.2221 106.603 24.1139L106.781 24.0957V26.918ZM113.308 30.3765C112.337 29.3925 112.053 28.4089 112.053 27.0973V19.8199C112.053 15.8123 109.335 13.4199 104.781 13.4199C102.594 13.4199 100.557 13.8099 98.8845 14.5482L97.6639 19.7605C99.7691 18.7229 101.76 18.2378 103.901 18.2378C105.866 18.2378 106.781 18.985 106.781 20.5898V21.3074L106.633 21.3202C104.616 21.4967 101.84 21.8146 100.069 22.3275C97.0818 23.1789 95.6299 24.8503 95.6299 27.437C95.6299 30.0946 97.9959 32.2569 100.904 32.2569C103.138 32.2569 105.088 31.3588 106.863 29.5109L107.141 29.2222C107.141 29.2222 107.162 30.7039 109.103 32.3433L113.308 30.3765Z" fill="#1F2430"/>
<path fill-rule="evenodd" clip-rule="evenodd" d="M50.0088 26.6698L50.043 26.4768C50.3728 24.6183 50.5903 22.6995 50.6905 20.7732L50.6984 20.618H60.2207V15.7422H50.6907L50.6822 15.5875C50.5781 13.7073 50.3598 11.8289 50.0334 10.0037L49.9991 9.81064H61.907L60.9667 4.57617H42.6904C44.2618 8.66565 45.0913 13.3932 45.0913 18.2671C45.0913 23.1131 44.2704 27.8184 42.7157 31.8924H61.3266L62.2668 26.6698H50.0088Z" fill="#1F2430"/>
<path fill-rule="evenodd" clip-rule="evenodd" d="M18.4355 36.4824C27.1486 36.4824 34.472 30.5721 36.5661 22.5727C34.2093 26.5838 29.8292 29.1024 24.8143 29.1024C22.2962 29.1024 20.5684 28.543 18.5459 27.3586C26.2167 28.2346 32.6662 24.3834 34.3977 17.968C36.5808 9.2254 29.2281 0.482422 18.4368 0.482422C8.40968 0.482422 0.307617 8.54131 0.307617 18.4823C0.307617 28.4235 8.42436 36.4824 18.4368 36.4824H18.4355Z" fill="#1F8844"/>
</svg>
