<svg xmlns="http://www.w3.org/2000/svg" xml:space="preserve" id="Layer_1" width="272.333" height="52.334" x="0" y="0" version="1.1" viewBox="0 0 272.333 52.334"><path fill="#0B1F33" d="M32.958 25.841a4.4 4.4 0 0 1-1.741-.421 4.3 4.3 0 0 1-1.43-1.065 4.5 4.5 0 0 1-.877-1.478 4.7 4.7 0 0 1-.264-1.691 4.4 4.4 0 0 1 .416-1.714 4.2 4.2 0 0 1 1.05-1.412 4.5 4.5 0 0 1 1.466-.883 4.5 4.5 0 0 1 1.208-.26 4.5 4.5 0 0 1 3.126 1.028c.454.371.826.83 1.104 1.371q.422.816.485 1.696a4.7 4.7 0 0 1-.192 1.698 4.6 4.6 0 0 1-.819 1.515 4.3 4.3 0 0 1-1.383 1.117 4.4 4.4 0 0 1-1.386.455q-.373.051-.763.044"/><path fill="#F04C4F" d="M40.632 17.324c.356.909.559 1.899.559 2.935 0 4.479-3.635 8.109-8.112 8.109a8.11 8.11 0 0 1-8.113-8.109c0-1.035.201-2.026.557-2.935h-6.416a14.32 14.32 0 0 0 .153 6.54 14.3 14.3 0 0 0 1.304 3.268s.016.03.049.082q.17.306.357.6c1.299 2.197 5.345 9.034 6.512 11.058.449.776 1.182 2.054 1.982 3.434.292.509.596 1.032.892 1.55 1.408 2.428 2.719 4.706 2.719 4.706l2.72-4.706c.295-.518.599-1.041.895-1.55.794-1.378 1.534-2.657 1.979-3.434 1.301-2.254 5.954-10.097 6.602-11.196.017-.02.027-.043.041-.063.026-.039.041-.067.041-.067a14.2 14.2 0 0 0 1.692-10.221h-6.413z"/><path fill="#0B1F33" d="M16.229 12.134h33.699v3.171H16.229zM51.533 6.338h3.168V21.53h-3.168zM57.028 9.114h3.169v9.636h-3.169zM11.42 6.338h3.171v15.19H11.42zM5.923 9.116h3.171v9.637H5.923z"/><path fill="#F04C4F" d="M87.939 18.183H70.545v8.348h15.429v4.894H70.545v12.46h-5.381V13.283h22.774zM101.272 13.283v30.602h-5.379V13.283zM124.133 43.885h-5.425V18.27h-9.705v-4.986h24.833v4.986h-9.703z"/><path fill="#0B1F33" d="M152.719 34.05h-6.076v9.835h-5.38V13.283h12.066c7.126 0 11.628 4.023 11.628 10.274.001 6.908-5.506 10.493-12.238 10.493m.174-15.867h-6.25v11.013h6.25c4.065 0 6.604-2.229 6.604-5.506.001-3.629-2.582-5.507-6.604-5.507M198.443 43.885h-5.684l-3.104-7.388h-14.468l-3.147 7.388h-5.507l13.459-30.817h4.989zm-16.041-24.391-5.249 12.24h10.534zM216.761 26.135c6.463 1.574 9.833 3.891 9.833 9.006 0 5.771-4.505 9.181-10.934 9.181-4.672 0-9.092-1.617-12.765-4.897l3.237-3.844c2.929 2.534 5.859 3.979 9.66 3.979 3.326 0 5.421-1.53 5.421-3.892 0-2.23-1.224-3.411-6.907-4.723-6.515-1.572-10.184-3.496-10.184-9.181 0-5.333 4.371-8.916 10.447-8.916 4.459 0 8.003 1.354 11.102 3.846l-2.887 4.068c-2.752-2.055-5.504-3.149-8.302-3.149-3.15 0-4.982 1.616-4.982 3.671.001 2.406 1.398 3.454 7.261 4.851M246.042 26.135c6.471 1.574 9.836 3.891 9.836 9.006 0 5.771-4.502 9.181-10.931 9.181-4.674 0-9.088-1.617-12.762-4.897l3.234-3.844c2.929 2.534 5.858 3.979 9.664 3.979 3.319 0 5.418-1.53 5.418-3.892 0-2.23-1.223-3.411-6.906-4.723-6.515-1.572-10.184-3.496-10.184-9.181 0-5.333 4.368-8.916 10.445-8.916 4.455 0 8.001 1.354 11.104 3.846l-2.885 4.068c-2.754-2.055-5.508-3.149-8.305-3.149-3.152 0-4.986 1.616-4.986 3.671.002 2.406 1.4 3.454 7.258 4.851M258.767 17.065v-.026c0-2.593 2.107-4.792 4.778-4.792 2.672 0 4.754 2.172 4.754 4.766v.026c0 2.592-2.106 4.792-4.78 4.792-2.67 0-4.752-2.173-4.752-4.766m8.98-.026v-.026c0-2.331-1.807-4.238-4.201-4.238-2.41 0-4.226 1.933-4.226 4.265v.026c0 2.329 1.802 4.239 4.199 4.239 2.408-.001 4.228-1.938 4.228-4.266m-6.306-2.673h2.354c.803 0 1.356.21 1.713.568.288.289.432.668.432 1.157v.026c0 .776-.406 1.29-1.038 1.551l1.211 1.764h-1.619l-1.027-1.539h-.618v1.539h-1.407v-5.066zm2.327 2.437c.491 0 .764-.224.764-.595v-.023c0-.408-.299-.608-.775-.608h-.908v1.227h.919z"/></svg>