<svg width="49" height="40" viewBox="0 0 49 40" xmlns="http://www.w3.org/2000/svg" xmlns:xlink="http://www.w3.org/1999/xlink"><title>Logo Color</title><g fill="none" fill-rule="evenodd"><path d="M5.48 36.552c-1.926 0 0 0 0 0-1.926 0-2.943-1.008-2.943-2.913v-5.496H.805v-2.43h1.732v-2.891h2.748v2.89h2.121v2.431h-2.12v4.752c0 .679.346 1.182.952 1.182.41 0 .8-.153.952-.328l.584 2.124c-.411.372-1.147.679-2.294.679zm23.898-5.613c0 3.419-1.92 5.393-4.565 5.393-1.216 0-2.326-.51-3.179-1.57v5.222h-2.71V25.823h2.71v1.295c.79-.998 1.92-1.55 3.179-1.55 2.645 0 4.565 1.953 4.565 5.371zm-5.374 2.867c1.535 0 2.587-1.254 2.587-3.1 0-1.825-1.052-3.079-2.587-3.079-.862 0-1.829.506-2.292 1.21v3.737c.442.682 1.43 1.232 2.292 1.232zm12.656 2.526c-1.216 0 0 0 0 0-1.216 0-2.325-.51-3.178-1.57v5.222h-2.71V25.823h2.71v1.295c.789-.998 1.92-1.55 3.178-1.55 2.646 0 4.566 1.953 4.566 5.371 0 3.419-1.92 5.393-4.566 5.393zm-.808-2.526c1.535 0 2.586-1.254 2.586-3.1 0-1.825-1.051-3.079-2.586-3.079-.862 0-1.83.506-2.292 1.21v3.737c.441.682 1.43 1.232 2.292 1.232zm8.905 2.746h-2.834V25.834h2.834v1.442c.782-.932 2.099-1.708 3.438-1.708v2.751a3.64 3.64 0 0 0-.781-.066c-.938 0-2.188.532-2.657 1.22v7.079zm-32.115 0c-3.47 0 0 0 0 0-3.47 0-5.565-2.535-5.565-5.503s2.095-5.481 5.565-5.481c3.491 0 5.586 2.513 5.586 5.48 0 2.969-2.095 5.504-5.586 5.504zm0-2.06c1.805 0 2.798-1.429 2.798-3.1 0-1.649-.993-3.078-2.799-3.078-1.783 0-2.776 1.429-2.776 3.078 0 1.671.993 3.1 2.776 3.1z" fill="#000"/><path d="M23.629.095c.986-.06 1.981-.003 2.948.206a10.337 10.337 0 0 1 5.891 3.683c.974 1.24 1.68 2.697 2 4.244.37 1.8.28 3.697-.296 5.444-.674 1.997-1.96 3.79-3.663 5.036-1.446 1.073-3.175 1.77-4.968 1.953-1.89.207-3.846-.082-5.566-.907a10.338 10.338 0 0 1-3.897-3.191 10.506 10.506 0 0 1-1.312-2.342c-.722-1.802-.888-3.808-.552-5.715a10.188 10.188 0 0 1 1.85-4.251c1.13-1.547 2.712-2.75 4.485-3.464a10.183 10.183 0 0 1 3.08-.696zm.114 3.683c-2.002 2.01-4.006 4.018-6.007 6.029-.329.316-.332.902-.004 1.219.404.406.808.813 1.215 1.217.318.32.895.312 1.205-.016.833-.838 1.673-1.668 2.498-2.513.008.045.014.09.012.137v6.403c0 .113-.006.228.016.34a.874.874 0 0 0 .835.688c.57.002 1.14.002 1.71 0 .35.005.674-.237.798-.56.07-.18.053-.38.055-.57.002-2.147-.003-4.294.003-6.442.803.814 1.615 1.621 2.42 2.433.087.086.174.174.28.236a.835.835 0 0 0 .88-.029c.107-.075.196-.17.288-.262l.922-.924c.102-.104.212-.204.281-.334.172-.325.12-.764-.149-1.023-1.995-2.005-3.994-4.007-5.99-6.011-.318-.367-.942-.376-1.268-.018 0 0 .326-.358 0 0z" fill="#55BBEA"/></g></svg>