<svg width="105" height="30" viewBox="0 0 105 30" fill="none" xmlns="http://www.w3.org/2000/svg">
    <path
        d="M17.1493 6.99977L18.404 6.36349L18.528 6.7979L15.8957 8.71838L15.881 8.72942L15.1797 9.94245L18.701 7.37282L18.5832 6.95191L26.6867 6.3052L26.7327 6.30152L27.2892 5.32227L18.3439 6.15488L18.3537 6.18985L18.3463 6.17083C18.3273 6.12175 18.2598 5.98492 18.1653 5.79778L18.0371 5.52352L15.9546 7.04947L17.1486 7.00038L17.1493 6.99977Z"
        fill="white" />
    <path d="M15.7774 7.01981L17.3279 4.252L16.8463 3.5918L14.9258 7.01981H15.7774Z" fill="white" />
    <path d="M15.3351 2.1351L14.7166 1.69824L13.3164 7.01974H14.0496L15.3351 2.1351Z" fill="white" />
    <path d="M12.663 0.710346L11.9936 0.567383L11.6758 7.0203H12.3526L12.663 0.710346Z" fill="white" />
    <path d="M10.0299 7.01972H10.6747L9.89916 0.104785L9.25 0.0722656L10.0206 6.9418L10.0299 7.01972Z" fill="white" />
    <path d="M8.99879 7.02031L7.34398 0.0771484H6.71875L8.37417 7.02031H8.99879Z" fill="white" />
    <path d="M7.32868 7.02031L4.97011 0.0771484H4.36328L6.72247 7.02031H7.32868Z" fill="white" />
    <path d="M5.65601 7.01982L2.71945 0.0766602H2.13287L5.06944 7.01982H5.65601Z" fill="white" />
    <path d="M0.563874 0.0766602H0L3.3949 6.97073L3.41945 7.01982H3.98393L0.563874 0.0766602Z" fill="white" />
    <path
        d="M18.9668 8.43551L14.4724 11.2438L14.4288 11.2708L13.7146 12.4256L19.0312 9.13314L19.1104 9.78781L25.2111 8.98158L25.7548 8.02441L19.0251 8.92452C19.0196 8.87605 19.0147 8.82758 19.0085 8.77726L18.9668 8.43489V8.43551Z"
        fill="white" />
    <path
        d="M19.1689 11.8331L19.1609 12.4405L23.7584 11.5864L24.2616 10.6514L19.1971 11.6079C19.1971 11.541 19.1971 11.4742 19.1971 11.4079L19.1947 11.076L12.9503 13.8063L12.3791 14.7985L19.1695 11.8343L19.1689 11.8331Z"
        fill="white" />
    <path
        d="M18.5973 17.3272C18.6145 17.2432 18.6323 17.1585 18.6489 17.0738L18.7151 16.737L10.0306 18.8606L9.47656 19.819L18.5016 17.6169L18.3912 18.1801L20.3393 17.5487L20.8473 16.6572L18.5875 17.3714L18.5967 17.3279L18.5973 17.3272Z"
        fill="white" />
    <path
        d="M18.0126 19.7344L8.61447 21.3763L8.57398 21.3837L8.01562 22.3488L17.5855 20.6799L17.661 20.6682C17.6493 20.71 17.6377 20.7523 17.626 20.7934L17.4855 21.2775L18.4611 20.8541L19.0262 19.8608L17.7984 20.4148C17.8353 20.3007 17.8721 20.1866 17.9083 20.0718L18.0132 19.7344H18.0126Z"
        fill="white" />
    <path
        d="M16.8668 22.9995L7.11645 23.9064L6.54706 24.8905L16.3968 23.9745L16.4477 23.9696L16.4998 23.8524C16.5765 23.6812 16.6508 23.51 16.7238 23.337L16.8668 22.9995Z"
        fill="white" />
    <path
        d="M5.65895 26.4303L5.07422 27.4433L14.7552 27.0273L14.8478 27.0236L15.4246 26.0088L5.7786 26.4242L5.65895 26.4303Z"
        fill="white" />
    <path d="M3.59375 30H13.152L13.7478 28.9526H4.19812L3.59375 30Z" fill="white" />
    <path
        d="M18.1358 22.9801L16.5859 25.7479L16.6632 25.8602C16.7252 25.9504 16.7933 26.0449 16.8657 26.1406L17.0676 26.4081L18.9881 22.9795H18.1358V22.9801Z"
        fill="white" />
    <path
        d="M18.5787 27.8646L18.6972 27.953C18.7689 28.007 18.8487 28.0634 18.9401 28.1266L19.1966 28.3021L20.5974 22.98H19.8636L18.5781 27.8646H18.5787Z"
        fill="white" />
    <path
        d="M21.2531 29.2253L21.2501 29.2909L21.4047 29.3449C21.463 29.3652 21.5206 29.3842 21.5795 29.4032L21.6642 29.4296L21.9195 29.4339L22.2373 22.981H21.5605L21.2531 29.2259V29.2253Z"
        fill="white" />
    <path
        d="M23.8871 22.98H23.2422L24.0092 29.8219L24.0171 29.8949L24.1994 29.9072C24.281 29.9127 24.3521 29.9164 24.4129 29.9182L24.6663 29.9268L23.895 23.0579L23.8864 22.98H23.8871Z"
        fill="white" />
    <path d="M25.5393 22.98H24.9141L26.5535 29.8563L26.5695 29.9238H27.1941L25.5552 23.0475L25.5393 22.98Z"
        fill="white" />
    <path d="M26.5898 22.9795L28.949 29.9233H29.5552L27.1967 22.9795H26.5898Z" fill="white" />
    <path d="M28.2578 22.9795L31.1944 29.9233H31.781L28.8444 22.9795H28.2578Z" fill="white" />
    <path d="M30.4942 22.9795H29.9297L33.3491 29.9233H33.913L30.4942 22.9795Z" fill="white" />
    <path
        d="M19.0642 14.1799C19.074 14.0903 19.0869 13.9694 19.09 13.9363L19.1231 13.5921L11.5633 16.3096L11.4878 16.3366L10.9258 17.3158L18.9992 14.4229L18.9341 14.9972L22.1959 14.2848L22.7254 13.3516L19.0961 14.1793H19.0642V14.1799Z"
        fill="white" />
    <path d="M28.8625 2.55664L19.0373 2.97816L18.4648 3.99178L28.279 3.57087L28.8625 2.55664Z" fill="white" />
    <path d="M30.3183 0H20.76L20.1562 1.04798H29.7139L30.3183 0Z" fill="white" />
    <path
        d="M42.9883 22.888V20.9737L52.5594 9.15077V9.03787H43.3264V7.12354H55.1493V9.03787L45.5782 20.8608V20.9737H55.2616V22.888H42.9883Z"
        fill="white" />
    <path
        d="M57.1756 22.8884V7.12451H58.977V16.1323H61.2289L64.8324 11.6281H66.9719L62.8058 16.9202L67.31 22.8877H65.0582L61.2295 17.8209H58.9777V22.8877H57.1762L57.1756 22.8884Z"
        fill="white" />
    <path
        d="M68.5514 22.8884L72.6047 7.12451H78.7975L82.8513 22.8884H80.8247L79.5859 18.2719H71.8162L70.5774 22.8884H68.5508H68.5514ZM72.2672 16.3575H79.1355L77.2212 9.03824H74.1809L72.2666 16.3575H72.2672Z"
        fill="white" />
    <path d="M102.613 22.8884V7.12451H104.64V22.8884H102.613Z" fill="white" />
    <path
        d="M100.945 14.6653H94.4998V16.576H97.6155C97.4861 17.2135 97.2769 17.8062 96.9811 18.3504C96.4553 19.3186 95.7202 20.0733 94.7741 20.6139C93.8279 21.1544 92.7622 21.4244 91.5761 21.4244C90.3901 21.4244 89.3243 21.1538 88.3782 20.6139C87.4321 20.0733 86.6964 19.3193 86.1712 18.3504C85.6453 17.3822 85.3827 16.2674 85.3827 15.0065C85.3827 13.7456 85.6453 12.6307 86.1712 11.6625C86.6964 10.6943 87.4321 9.93961 88.3782 9.39906C89.3243 8.8585 90.3901 8.58853 91.5761 8.58853C92.7622 8.58853 93.8279 8.8585 94.7741 9.39906C95.7202 9.93961 96.4553 10.6937 96.9811 11.6625C97.0965 11.8748 97.1965 12.0951 97.2861 12.3215H99.409C99.2378 11.7613 99.012 11.2257 98.7261 10.717C98.0125 9.44876 97.0333 8.45784 95.7871 7.74426C94.5409 7.03129 93.1371 6.6748 91.5755 6.6748C90.014 6.6748 88.6101 7.03129 87.364 7.74426C86.1178 8.45723 85.1379 9.44814 84.4249 10.717C83.7113 11.9859 83.3555 13.4161 83.3555 15.0071C83.3555 16.5981 83.712 18.0283 84.4249 19.2972C85.1379 20.566 86.1172 21.5569 87.364 22.2699C88.6101 22.9829 90.0134 23.3394 91.5755 23.3394C93.1377 23.3394 94.5403 22.9823 95.7871 22.2699C97.0333 21.5569 98.0125 20.566 98.7261 19.2972C99.1961 18.4609 99.5078 17.5534 99.6679 16.5766H100.944V14.6659L100.945 14.6653Z"
        fill="white" />
</svg>